<svg width="457" height="461" viewBox="0 0 457 461" fill="none" xmlns="http://www.w3.org/2000/svg">
<g clip-path="url(#clip0_6175_6044)">
<foreignObject x="-4" y="-4" width="464.91" height="468.004"><div xmlns="http://www.w3.org/1999/xhtml" style="backdrop-filter:blur(2px);clip-path:url(#bgblur_1_6175_6044_clip_path);height:100%;width:100%"></div></foreignObject><path data-figma-bg-blur-radius="4" d="M260.6 6.56462C282.031 -5.51093 299.025 -0.926686 311.585 20.3195C324.147 41.5657 342.706 52.3563 367.263 52.6838C391.817 53.0084 404.259 65.5359 404.584 90.2599C404.909 114.984 415.623 133.666 436.726 146.312C457.832 158.957 462.384 176.068 450.39 197.642C438.395 219.216 438.395 240.792 450.39 262.363C462.381 283.94 457.829 301.048 436.726 313.694C415.623 326.342 404.909 345.024 404.584 369.745C404.259 394.467 391.817 406.994 367.263 407.321C342.703 407.649 324.147 418.437 311.585 439.684C299.025 460.933 282.031 465.516 260.6 453.438C239.17 441.359 217.744 441.359 196.31 453.438C174.88 465.516 157.889 460.933 145.326 439.684C132.766 418.437 114.207 407.649 89.6503 407.321C65.0961 406.994 52.6539 394.467 52.329 369.745C52.004 345.024 41.2868 326.342 20.1864 313.694C-0.919167 301.051 -5.47588 283.94 6.52137 262.363C18.5214 240.792 18.5214 219.216 6.52137 197.642C-5.47305 176.065 -0.916501 158.957 20.1864 146.312C41.2841 133.666 52.0041 114.981 52.329 90.2599C52.654 65.536 65.0961 53.0113 89.6503 52.6838C114.21 52.3563 132.766 41.5658 145.326 20.3195C157.889 -0.926822 174.88 -5.51122 196.31 6.56462C217.744 18.6433 239.17 18.6433 260.6 6.56462Z" fill="#1E4266"/>
<path fill-rule="evenodd" clip-rule="evenodd" d="M300.57 303.585C298.663 303.585 296.777 303.515 294.908 303.386H278.754V274.016H298.927V274C299.093 274.003 299.261 274.005 299.427 274.005C329.712 274.005 354.261 249.559 354.261 219.401C354.261 189.243 329.712 164.796 299.427 164.796C273.879 164.796 252.042 182.132 245.952 205.685V232.452L245.947 234.616V303.585H217.179V284.077L217.101 284.139V222.752H217.075C217.139 221.643 217.179 220.526 217.179 219.401C217.179 189.243 192.63 164.796 162.348 164.796C132.065 164.796 107.517 189.243 107.517 219.401C107.517 220.526 107.554 221.643 107.621 222.752H107.559V282.131C107.543 282.118 107.53 282.104 107.517 282.091V299.709H80.0996V222.353H80.1236C80.1103 221.748 80.0996 221.145 80.0996 220.539C80.0996 174.674 117.436 137.494 163.491 137.494C191.65 137.494 216.543 151.398 231.642 172.685L232.096 173.142C247.162 151.597 272.213 137.494 300.575 137.494C346.63 137.494 383.966 174.674 383.966 220.539C383.958 266.402 346.624 303.585 300.57 303.585V303.585Z" fill="white"/>
</g>
<defs>
<clipPath id="bgblur_1_6175_6044_clip_path" transform="translate(4 4)"><path d="M260.6 6.56462C282.031 -5.51093 299.025 -0.926686 311.585 20.3195C324.147 41.5657 342.706 52.3563 367.263 52.6838C391.817 53.0084 404.259 65.5359 404.584 90.2599C404.909 114.984 415.623 133.666 436.726 146.312C457.832 158.957 462.384 176.068 450.39 197.642C438.395 219.216 438.395 240.792 450.39 262.363C462.381 283.94 457.829 301.048 436.726 313.694C415.623 326.342 404.909 345.024 404.584 369.745C404.259 394.467 391.817 406.994 367.263 407.321C342.703 407.649 324.147 418.437 311.585 439.684C299.025 460.933 282.031 465.516 260.6 453.438C239.17 441.359 217.744 441.359 196.31 453.438C174.88 465.516 157.889 460.933 145.326 439.684C132.766 418.437 114.207 407.649 89.6503 407.321C65.0961 406.994 52.6539 394.467 52.329 369.745C52.004 345.024 41.2868 326.342 20.1864 313.694C-0.919167 301.051 -5.47588 283.94 6.52137 262.363C18.5214 240.792 18.5214 219.216 6.52137 197.642C-5.47305 176.065 -0.916501 158.957 20.1864 146.312C41.2841 133.666 52.0041 114.981 52.329 90.2599C52.654 65.536 65.0961 53.0113 89.6503 52.6838C114.21 52.3563 132.766 41.5658 145.326 20.3195C157.889 -0.926822 174.88 -5.51122 196.31 6.56462C217.744 18.6433 239.17 18.6433 260.6 6.56462Z"/>
</clipPath><clipPath id="clip0_6175_6044">
<rect width="457" height="461" fill="white"/>
</clipPath>
</defs>
</svg>
